<?xml version="1.0" encoding="UTF-8"?>
<svg width="100px" height="100px" viewBox="0 0 100 100" version="1.1" xmlns="http://www.w3.org/2000/svg" xmlns:xlink="http://www.w3.org/1999/xlink">
    <!-- Generator: Sketch 47.1 (45422) - http://www.bohemiancoding.com/sketch -->
    <title>contact-form</title>
    <desc>Created with Sketch.</desc>
    <defs></defs>
    <g id="Icons" stroke="none" stroke-width="1" fill="none" fill-rule="evenodd">
        <g id="contact-form">
            <circle id="Oval" fill="#2FCEAA" cx="50" cy="50" r="50"></circle>
            <path d="M67.328125,28.406808 C67.8560294,28.7907385 68.0719871,29.3026382 67.9760045,29.9425223 L61.8331473,66.7996652 C61.7531618,67.2635812 61.497212,67.6235106 61.0652902,67.8794643 C60.8413307,68.0074411 60.5933793,68.0714286 60.3214286,68.0714286 C60.1454604,68.0714286 59.9534981,68.0314364 59.7455357,67.9514509 L48.875558,63.5122768 L43.0686384,70.5909598 C42.7806905,70.9588932 42.3887674,71.1428571 41.8928571,71.1428571 C41.6848948,71.1428571 41.5089293,71.1108634 41.3649554,71.046875 C41.0610104,70.9348953 40.8170582,70.7469321 40.6330915,70.4829799 C40.4491248,70.2190277 40.3571429,69.9270849 40.3571429,69.6071429 L40.3571429,61.2327009 L61.0892857,35.8214286 L35.438058,58.0172991 L25.9598214,54.1300223 C25.3679286,53.9060629 25.0479913,53.4661491 25,52.8102679 C24.9680058,52.1703837 25.2239556,51.6984762 25.7678571,51.3945312 L65.6964286,28.358817 C65.9363851,28.214843 66.1923349,28.1428571 66.4642857,28.1428571 C66.7842278,28.1428571 67.0721713,28.2308399 67.328125,28.406808 Z" id="Plane" fill="#FFFFFF"></path>
        </g>
    </g>
</svg>